<svg width="25" height="24" viewBox="0 0 25 24" fill="none" xmlns="http://www.w3.org/2000/svg">
<path d="M15.5154 20.7142C16.1464 20.7142 16.6579 21.3009 16.6579 22.0248C16.6579 22.6883 16.2281 23.2367 15.6704 23.3234L15.5154 23.3354H1.14254C0.511531 23.3354 0 22.7486 0 22.0248C0 21.3613 0.429828 20.8129 0.9875 20.7261L1.14254 20.7142H15.5154ZM23.16 11.0692C23.791 11.0692 24.3025 11.656 24.3025 12.3798C24.3025 13.0434 23.8727 13.5917 23.315 13.6785L23.16 13.6905H1.14254C0.511531 13.6905 0 13.1037 0 12.3798C0 11.7163 0.429828 11.168 0.9875 11.0812L1.14254 11.0692H23.16ZM17.0304 0.507324C17.6614 0.507324 18.1729 1.09411 18.1729 1.81795C18.1729 2.48147 17.7431 3.02983 17.1854 3.11661L17.0304 3.12858H1.14254C0.511531 3.12858 0 2.54179 0 1.81795C0 1.15443 0.429828 0.606074 0.9875 0.519289L1.14254 0.507324H17.0304Z" fill="#212121"/>
</svg>
