<svg width="18" height="18" viewBox="0 0 18 18" fill="none" xmlns="http://www.w3.org/2000/svg">
<g clip-path="url(#clip0_8_1260)">
<path d="M17.3023 7.22944C17.2197 6.95406 16.9719 6.73377 16.669 6.67869L11.6296 5.93518L9.37159 1.39152C9.2339 1.11615 8.95853 0.950928 8.65561 0.950928C8.3527 0.950928 8.07733 1.11615 7.93964 1.39152L5.68158 5.96272L0.669791 6.67869C0.366881 6.73377 0.119045 6.92653 0.0364329 7.22944C-0.046179 7.50481 0.00889561 7.83526 0.229194 8.05556L3.86412 11.6079L3.01046 16.6197C2.95539 16.9226 3.09308 17.2255 3.31337 17.3907C3.56121 17.5559 3.89166 17.5835 4.13949 17.4458L8.65561 15.0776L13.1442 17.4458C13.2543 17.5009 13.392 17.5284 13.5022 17.5284C13.6674 17.5284 13.8326 17.4733 13.9703 17.3907C14.2182 17.2255 14.3283 16.9226 14.2732 16.6197L13.4196 11.6079L17.0545 8.05556C17.3023 7.83526 17.3849 7.50481 17.3023 7.22944Z" fill="#FFB000"/>
<path d="M4.69025 17.1429L8.65562 15.0776L12.621 17.1429L8.65562 13.1775L4.69025 17.1429Z" fill="#858C8B" fill-opacity="0.12"/>
<path d="M8.65562 0.950928C8.38024 0.978465 8.10487 1.14369 7.96718 1.39152L5.70912 5.96272L0.669791 6.67869C0.366881 6.73377 0.119045 6.92653 0.0364329 7.22944C-0.046179 7.50481 0.00889561 7.83526 0.229194 8.05556L3.86412 11.6079L3.01046 16.6197C2.95539 16.9226 3.09308 17.2255 3.31337 17.3907C3.56121 17.5559 3.89166 17.5835 4.16703 17.4458L8.65562 15.1051V0.950928Z" fill="#FFB000"/>
</g>
<defs>
<clipPath id="clip0_8_1260">
<rect width="17.3333" height="17.3333" fill="white" transform="translate(-3.05176e-05 0.575684)"/>
</clipPath>
</defs>
</svg>
